<svg width="1920" height="538" viewBox="0 0 1920 538" fill="none" xmlns="http://www.w3.org/2000/svg" opacity="0.12">
<path d="M249.106 342.87C303.952 277.463 392.814 270.974 484.367 273.236C523.236 274.281 563.442 283.64 601.42 282.235C635.446 280.976 669.494 276.549 703.844 275.709C707.563 267.773 711.145 259.998 715.575 252.635C710.024 252.749 704.482 252.861 698.913 253.03C662.364 254.089 626.241 260.034 590.189 261.723C551.773 263.525 510.868 252.749 471.577 250.993C380.721 246.93 289.343 249.886 237.862 321.036C229.105 333.142 220.658 345.931 211.376 358.016C216.915 361.412 222.55 364.724 228.283 367.951C235.376 359.601 242.179 351.082 249.106 342.87Z" stroke="white" stroke-width="3.62264" stroke-miterlimit="10"/>
<path d="M1480.29 217.635C1497.69 216.389 1515.15 215.976 1532.61 215.94C1570.48 215.866 1608.44 217.586 1646 216.705C1688.18 215.568 1730.23 211.515 1771.85 204.577L1824.55 171.926C1767.83 184.292 1709.41 192.651 1649.43 193.772C1593.77 194.807 1537.21 189.673 1481.43 194.058C1449.05 196.605 1418.47 202.664 1388.48 210.42C1395.15 216.101 1401.65 221.972 1408.14 227.914C1431.94 222.911 1456.04 219.477 1480.29 217.635V217.635Z" stroke="white" stroke-width="3.62264" stroke-miterlimit="10"/>
<path d="M484.369 273.237C392.816 270.974 303.954 277.463 249.108 342.87C242.181 351.083 235.378 359.602 228.302 367.949C234.521 371.441 240.875 374.825 247.364 378.101C251.701 373.611 256.012 369.116 260.333 364.698C318.651 305.22 404.914 294.816 497.131 295.475C535.587 295.737 575.089 303.768 612.627 302.75C639.074 302.028 665.432 299.758 691.926 298.688C696.321 291.25 700.301 283.579 703.847 275.709C669.452 276.556 635.448 280.977 601.422 282.235C563.445 283.64 523.239 274.281 484.369 273.237Z" stroke="white" stroke-width="3.62264" stroke-miterlimit="10"/>
<path d="M1479.17 241.212C1496.35 240.103 1513.57 239.706 1530.77 239.621C1568.11 239.438 1605.53 240.692 1642.57 239.64C1670.37 238.846 1697.87 236.72 1725.06 233.575L1771.85 204.579C1730.22 211.518 1688.17 215.57 1646 216.707C1608.44 217.587 1570.48 215.868 1532.6 215.943C1515.15 215.978 1497.68 216.392 1480.29 217.637C1456.03 219.48 1431.92 222.914 1408.12 227.918C1414.89 234.162 1421.59 240.496 1428.27 246.815C1444.94 244.279 1461.87 242.338 1479.17 241.212Z" stroke="white" stroke-width="3.62264" stroke-miterlimit="10"/>
<path d="M497.13 295.476C404.916 294.834 318.65 305.221 260.332 364.699C256.011 369.117 251.7 373.612 247.363 378.103C254.499 381.696 261.83 385.147 269.357 388.456L271.557 386.526C333.234 332.871 417.01 318.826 509.901 317.713C547.892 317.261 586.741 323.886 623.831 323.266C640.553 322.986 657.252 322.235 673.958 321.598C680.405 315.12 686.114 307.96 690.98 300.245C691.304 299.725 691.61 299.208 691.925 298.689C665.431 299.76 639.039 302.034 612.626 302.751C575.088 303.769 535.587 295.738 497.13 295.476Z" stroke="white" stroke-width="3.62264" stroke-miterlimit="10"/>
<path d="M1528.92 263.298C1565.76 263.004 1602.63 263.793 1639.15 262.561C1653.54 262.084 1667.86 261.295 1682.1 260.197L1725.06 233.573C1697.87 236.718 1670.37 238.801 1642.57 239.638C1605.55 240.686 1568.11 239.436 1530.77 239.619C1513.57 239.704 1496.32 240.105 1479.17 241.21C1462.02 242.315 1444.94 244.277 1428.28 246.812C1435.45 253.629 1442.62 260.421 1449.9 267.041C1459.19 266.1 1468.57 265.331 1478.04 264.751C1495 263.814 1511.98 263.443 1528.92 263.298Z" stroke="white" stroke-width="3.62264" stroke-miterlimit="10"/>
<path d="M1527.08 286.986C1563.4 286.564 1599.71 286.897 1635.72 285.495C1637.71 285.42 1639.69 285.319 1641.68 285.226L1682.11 260.196C1667.87 261.276 1653.56 262.064 1639.16 262.56C1602.63 263.792 1565.77 263.003 1528.93 263.297C1511.99 263.442 1495.01 263.787 1478.05 264.785C1468.58 265.33 1459.2 266.098 1449.91 267.074C1458.06 274.506 1466.24 281.723 1474.63 288.532L1476.93 288.395C1493.66 287.526 1510.4 287.172 1527.08 286.986Z" stroke="white" stroke-width="3.62264" stroke-miterlimit="10"/>
<path d="M509.896 317.712C416.979 318.829 333.232 332.888 271.553 386.526L269.352 388.455C277.983 392.231 286.906 395.793 296.119 399.14C358.784 358.216 435.395 342.658 522.659 339.95C560.273 338.79 598.376 343.979 635.031 343.781C639.046 343.757 643.057 343.706 647.076 343.655C656.728 337.155 665.742 329.767 673.997 321.591C657.274 322.24 640.566 322.983 623.87 323.26C586.745 323.885 547.922 317.256 509.896 317.712Z" stroke="white" stroke-width="3.62264" stroke-miterlimit="10"/>
<path d="M1602.64 309.427L1641.7 285.224C1639.71 285.317 1637.73 285.418 1635.74 285.493C1599.71 286.898 1563.4 286.565 1527.09 286.984C1510.42 287.17 1493.67 287.524 1476.93 288.36L1474.63 288.497C1484.63 296.698 1495.17 304.224 1506.19 311.025C1512.55 310.882 1518.91 310.762 1525.25 310.664C1551.08 310.284 1576.88 310.094 1602.64 309.427Z" stroke="white" stroke-width="3.62264" stroke-miterlimit="10"/>
<path d="M522.682 339.947C435.453 342.65 358.809 358.231 296.142 399.138C307.194 403.127 318.745 406.773 330.796 410.075C390.373 381.231 457.663 366.091 535.436 362.195C562.245 360.851 589.157 362.439 615.647 363.5C627.123 356.642 637.634 350.212 647.091 343.654C643.071 343.705 639.06 343.755 635.046 343.779C598.385 344.004 560.279 338.79 522.682 339.947Z" stroke="white" stroke-width="3.62264" stroke-miterlimit="10"/>
<path d="M1602.64 309.425C1576.91 310.088 1551.08 310.283 1525.23 310.664C1518.89 310.756 1512.54 310.877 1506.17 311.026C1523.09 321.32 1541.19 329.286 1561.21 333.601L1563.72 333.538L1602.64 309.425Z" stroke="white" stroke-width="3.62264" stroke-miterlimit="10"/>
<path d="M330.778 410.077C333.053 410.698 335.381 411.319 337.661 411.912C351.31 415.407 365.172 418.029 379.164 419.761C430.01 401.231 485.009 388.812 548.198 384.433C558.503 383.716 568.797 383.412 579.076 383.32C591.21 377.426 603.02 371.052 614.508 364.199L615.642 363.527C589.152 362.466 562.24 360.878 535.431 362.222C457.645 366.094 390.329 381.238 330.778 410.077Z" stroke="white" stroke-width="3.62264" stroke-miterlimit="10"/>
<path d="M379.162 419.761C451.554 428.731 519.223 412.414 579.075 383.321C568.795 383.412 558.501 383.716 548.197 384.434C485.007 388.812 430.008 401.231 379.162 419.761Z" stroke="white" stroke-width="3.62264" stroke-miterlimit="10"/>
<path d="M1561.21 333.594L1563.03 333.972L1563.73 333.53L1561.21 333.594Z" stroke="white" stroke-width="3.62264" stroke-miterlimit="10"/>
<path d="M2155.65 -41.9923C2090.77 -24.9455 2039.53 12.6716 1992.18 50.8502C1965.22 72.6023 1938.8 94.8784 1912.92 117.678C1963.3 87.8767 2015.36 60.9729 2070.38 46.9289C2081.92 39.4214 2093.69 32.3641 2105.7 26.1129C2133.11 11.9407 2162.54 2.02447 2192.96 -3.28799C2223.66 -8.71624 2254.95 -8.53716 2285.18 -5.54056C2326.32 -1.47278 2368.34 8.92368 2407.49 16.5931C2427.52 20.5195 2446.15 23.7625 2464.78 27.3112C2469.6 28.2331 2474.35 29.2692 2479.11 30.2869L2476.22 10.2248C2466.03 7.7524 2455.63 4.59044 2444.87 1.05842C2356.63 -27.9433 2252.36 -67.376 2155.65 -41.9923Z" stroke="white" stroke-width="3.62264" stroke-miterlimit="10"/>
<path d="M-390.156 285.624C-371.481 266.533 -353.08 247.447 -334.112 229.481C-317.264 213.564 -298.824 196.849 -272.095 189.772C-238.493 180.823 -201.539 188.922 -169.109 198.188C-133.045 208.589 -96.6382 220.765 -61.1092 234.9C1.19066 259.746 59.5623 290.514 107.914 325.581C151.879 357.595 193.664 388.782 243.851 413.035C271.657 426.47 300.78 437.057 330.768 444.63C385.679 458.576 438.587 457.727 488.267 447.283C528.481 394.545 577.438 394.465 631.563 390.135C654.242 377.721 673.477 365.057 687.484 346.251C710.247 315.699 715.895 282.02 762.432 261.277C771.234 257.32 780.408 254.24 789.82 252.08C833.845 242.124 876.073 254.472 922.005 264.815C931.326 266.922 940.757 268.935 950.296 270.397C977.386 274.52 999.085 272.603 1017.59 265.691C1043.06 256.217 1060.05 237.825 1080.89 221.09C1094.96 209.772 1110.28 198.635 1128.89 189.814C1183.24 163.985 1238.65 166.151 1290.04 184.882C1311.66 192.765 1333.04 205.951 1352.8 218.072C1389.02 240.315 1419.28 271.458 1452.1 299.39C1477.69 321.145 1503.81 340.307 1532.8 352.786L1563.08 334.027L1561.25 333.649C1541.23 329.334 1523.13 321.368 1506.22 311.074C1495.2 304.273 1484.66 296.747 1474.66 288.546C1466.26 281.737 1458.06 274.524 1449.94 267.088C1442.7 260.463 1435.52 253.673 1428.32 246.859C1421.64 240.54 1414.94 234.206 1408.17 227.962C1401.71 222.015 1395.18 216.148 1388.51 210.468C1373.59 197.765 1358 185.983 1341.12 176.255C1273.24 137.101 1198.33 114.058 1122.3 151.116C1057.68 182.603 1037.44 244.257 947.43 232.592C885.132 224.513 825.277 189.766 761.565 214.836C737.152 224.482 724.597 237.686 715.594 252.634C711.147 259.999 707.565 267.775 703.863 275.708C700.318 283.577 696.338 291.248 691.942 298.686C691.628 299.205 691.322 299.722 690.998 300.242C686.132 307.957 680.423 315.117 673.976 321.595C665.721 329.771 656.707 337.159 647.055 343.659C637.555 350.224 627.088 356.648 615.612 363.505L614.479 364.177C603.018 371.021 591.208 377.395 579.046 383.299C519.195 412.392 451.525 428.709 379.134 419.739C365.142 418.007 351.28 415.385 337.632 411.89C335.314 411.347 333.032 410.675 330.748 410.056C318.675 406.763 307.124 403.117 296.094 399.119C286.863 395.768 277.941 392.206 269.327 388.434C261.773 385.134 254.442 381.683 247.334 378.08C240.834 374.811 234.48 371.427 228.272 367.928C222.534 364.701 216.898 361.389 211.365 357.992C176.432 336.607 144.985 312.073 112.273 286.808C36.894 228.589 -66.1084 181.196 -167.247 145.541C-200.009 133.972 -238.126 123.322 -272.51 131.937C-300.257 138.888 -318.51 156.725 -334.971 173.603C-365.47 204.828 -394.39 239.343 -425.826 271.921C-413.866 276.385 -401.952 281.014 -390.156 285.624Z" stroke="white" stroke-width="3.62264" stroke-miterlimit="10"/>
<path d="M677.374 384.43C682.721 383.39 687.992 382.133 693.211 380.699C712.221 354.948 724.789 327.054 763.273 307.792C771.971 303.359 781.035 299.672 790.364 296.77C834.215 283.454 875.948 291.489 924.319 302.182C933.729 304.286 943.352 306.463 953.124 308.199C979.938 312.861 1002.39 312.293 1021.78 305.561C1048.61 296.295 1064.49 276.395 1085.98 259.628C1100.45 248.314 1116.4 237.289 1135.49 228.495C1190.37 203.07 1247.95 203.488 1300.14 222.595C1322.5 230.784 1344.84 247.102 1364.53 259.91C1400.66 283.499 1430.92 315.439 1465.96 342.473C1478.64 352.342 1491.98 361.348 1505.88 369.43L1532.83 352.728C1503.84 340.232 1477.72 321.079 1452.14 299.333C1419.33 271.442 1389.07 240.3 1352.84 218.058C1333.08 205.937 1311.7 192.751 1290.09 184.868C1238.71 166.116 1183.28 163.97 1128.93 189.8C1110.32 198.612 1095 209.758 1080.93 221.076C1060.09 237.811 1043.1 256.203 1017.63 265.677C999.153 272.585 977.427 274.505 950.337 270.382C940.801 268.938 931.37 266.925 922.046 264.801C876.114 254.458 833.886 242.11 789.862 252.066C780.45 254.226 771.275 257.306 762.473 261.263C715.889 281.987 710.288 315.685 687.525 346.237C673.518 365.043 654.283 377.707 631.604 390.121C646.443 388.988 661.748 387.473 677.374 384.43Z" stroke="white" stroke-width="3.62264" stroke-miterlimit="10"/>
<path d="M465.804 484.106C471.923 472.116 478.499 460.482 486.276 449.867C486.928 448.984 487.582 448.18 488.238 447.323C438.558 457.767 385.649 458.616 330.739 444.67C300.739 437.101 271.604 426.516 243.787 413.08C193.595 388.792 151.81 357.605 107.849 325.626C59.4981 290.559 1.1264 259.791 -61.1735 234.945C-96.7024 220.81 -133.101 208.633 -169.173 198.232C-201.569 188.961 -238.523 180.863 -272.159 189.817C-298.931 196.9 -317.329 213.609 -334.176 229.525C-353.145 247.492 -371.546 266.578 -390.22 285.669C-376.832 290.892 -363.599 296.076 -350.63 300.904C-344.891 295.695 -339.135 290.483 -333.317 285.394C-316.118 270.453 -297.54 254.875 -271.743 247.661C-238.924 238.377 -203.13 243.941 -171.137 250.902C-135.006 258.839 -99.3814 268.873 -64.4485 280.955C-2.70322 302.557 54.7565 331.351 103.392 364.395C147.251 394.372 189.059 423.995 238.299 447.139C262.603 458.495 287.85 467.762 313.762 474.838C335.935 478.185 358.014 482.3 380.003 486.893C408.606 489.29 437.403 488.355 465.804 484.106V484.106Z" stroke="white" stroke-width="3.62264" stroke-miterlimit="10"/>
<path d="M238.394 447.089C189.126 423.993 147.312 394.327 103.488 364.345C54.8543 331.318 -2.60792 302.507 -64.3532 280.905C-99.2861 268.823 -134.91 258.789 -171.042 250.853C-203.02 243.872 -238.828 238.327 -271.647 247.611C-297.445 254.825 -316.022 270.403 -333.222 285.344C-339.041 290.425 -344.8 295.619 -350.535 300.854C-347.225 302.086 -343.933 303.293 -340.66 304.478C-326.657 309.543 -312.669 313.759 -298.742 317.432C-290.086 312.38 -280.861 308.359 -271.258 305.45C-239.222 295.831 -204.587 298.756 -172.998 303.513C-137.358 308.845 -102.148 316.663 -67.6295 326.906C-8.82211 344.673 47.247 370.309 99.0296 403.106C133.138 424.908 166.157 446.77 201.942 465.761C239.401 465.737 276.775 469.181 313.866 474.787C287.951 467.711 262.701 458.445 238.394 447.089V447.089Z" stroke="white" stroke-width="3.62264" stroke-miterlimit="10"/>
<path d="M1465.87 342.486C1430.81 315.454 1400.61 283.505 1364.44 259.922C1344.75 247.114 1322.41 230.796 1300.05 222.608C1247.87 203.499 1190.29 203.081 1135.4 228.507C1116.36 237.293 1100.39 248.323 1085.89 259.64C1064.4 276.407 1048.52 296.306 1021.69 305.573C1002.35 312.297 979.864 312.871 953.034 308.211C943.266 306.51 933.638 304.298 924.229 302.195C875.851 291.458 834.129 283.501 790.273 296.782C780.944 299.684 771.881 303.371 763.182 307.804C724.722 327.045 712.156 354.957 693.12 380.711C768.053 360.185 830.958 302.88 911.169 304.308C952.49 305.044 990.528 322.169 1027.62 344.823C1054.59 335.44 1069.3 314.63 1090.91 298.196C1105.78 286.887 1122.4 275.966 1141.88 267.196C1197.29 242.17 1257.03 240.855 1310.02 260.33C1333.12 268.824 1356.42 288.268 1376.02 301.771C1412.22 326.684 1442.36 359.439 1479.62 385.567C1485.05 382.274 1490.42 378.976 1495.73 375.676L1505.79 369.442C1491.89 361.36 1478.55 352.354 1465.87 342.486V342.486Z" stroke="white" stroke-width="3.62264" stroke-miterlimit="10"/>
<path d="M380.101 486.843C405.522 492.162 430.803 498.114 455.913 504.284C459.145 497.523 462.404 490.759 465.802 484.106C437.432 488.33 408.669 489.249 380.101 486.843V486.843Z" stroke="white" stroke-width="3.62264" stroke-miterlimit="10"/>
<path d="M99.0298 403.106C47.2471 370.31 -8.82195 344.674 -67.6293 326.906C-102.148 316.663 -137.358 308.846 -172.998 303.513C-204.581 298.791 -239.215 295.875 -271.258 305.451C-280.86 308.359 -290.086 312.381 -298.742 317.432C-227.906 336.149 -158.059 339.364 -86.4316 351.391C-58.7796 356.038 -30.7941 372.739 -3.63452 394.162C30.4214 407.306 63.298 423.259 94.6496 441.856C109.984 450.948 125.127 460.128 140.324 469.134C147.52 468.337 154.741 467.65 161.968 467.138C175.294 466.197 188.615 465.774 201.918 465.783C166.157 446.77 133.155 424.906 99.0298 403.106Z" stroke="white" stroke-width="3.62264" stroke-miterlimit="10"/>
<path d="M1376.12 301.776C1356.48 288.278 1333.21 268.829 1310.11 260.336C1257.13 240.86 1197.38 242.175 1141.97 267.201C1122.5 275.954 1105.86 286.877 1091.01 298.201C1069.39 314.636 1054.76 335.434 1027.71 344.828C1039.22 351.857 1050.64 359.414 1062.03 367.187C1073.46 357.494 1083.37 346.171 1096.09 336.748C1112.34 324.533 1129.94 314.188 1148.54 305.913C1204.47 281.293 1266.39 278.246 1320.18 298.08C1344.01 306.88 1368.26 329.458 1387.78 343.613C1411.35 360.765 1432.34 381.057 1455.11 400.096C1463.38 395.321 1471.55 390.447 1479.61 385.543C1442.36 359.44 1412.22 326.685 1376.12 301.776Z" stroke="white" stroke-width="3.62264" stroke-miterlimit="10"/>
<path d="M94.6149 441.86C63.2633 423.263 30.3866 407.31 -3.66925 394.167C28.2016 419.307 58.9347 450.941 86.6592 477.344C104.448 473.955 122.343 471.12 140.35 469.13C125.127 460.127 109.984 450.947 94.6149 441.86Z" stroke="white" stroke-width="3.62264" stroke-miterlimit="10"/>
<path d="M1387.79 343.602C1368.25 329.405 1344 306.827 1320.18 298.069C1266.4 278.234 1204.48 281.281 1148.54 305.902C1129.94 314.177 1112.35 324.522 1096.1 336.736C1083.37 346.159 1073.47 357.483 1062.03 367.176C1070.94 373.253 1079.84 379.456 1088.74 385.63C1092.67 381.929 1096.82 378.474 1101.18 375.285C1117.94 363.093 1136.03 352.797 1155.1 344.588C1211.55 320.367 1275.64 315.588 1330.23 335.797C1354.79 344.896 1380.01 370.597 1399.47 385.48C1410.76 394.136 1421.45 403.465 1432.1 412.941C1439.85 408.781 1447.52 404.504 1455.11 400.11C1432.35 381.046 1411.36 360.788 1387.79 343.602Z" stroke="white" stroke-width="3.62264" stroke-miterlimit="10"/>
<path d="M1330.23 335.797C1275.64 315.578 1211.56 320.401 1155.1 344.587C1136.03 352.793 1117.94 363.087 1101.17 375.276C1096.81 378.466 1092.66 381.921 1088.73 385.622C1096.98 391.338 1105.24 397.01 1113.54 402.552C1115.32 403.5 1117.11 404.457 1118.89 405.422C1132.51 396.872 1146.83 389.465 1161.7 383.277C1218.68 359.463 1284.94 352.95 1340.32 373.519C1364.45 382.48 1389.35 409.077 1408.42 425.05C1416.4 421.194 1424.31 417.137 1432.14 412.943C1421.49 403.467 1410.8 394.139 1399.51 385.483C1380.01 370.596 1354.8 344.895 1330.23 335.797Z" stroke="white" stroke-width="3.62264" stroke-miterlimit="10"/>
<path d="M1340.29 373.526C1284.9 352.957 1218.63 359.435 1161.66 383.284C1146.79 389.471 1132.48 396.879 1118.85 405.429C1131.24 412.147 1143.82 419.502 1156.58 426.991C1160.38 425.27 1164.24 423.585 1168.18 421.983C1225.7 398.566 1294.12 390.322 1350.31 411.258C1362.32 415.733 1374.55 424.955 1386.15 435.171C1393.6 432.003 1401.02 428.65 1408.35 425.061C1389.31 409.083 1364.41 382.486 1340.29 373.526Z" stroke="white" stroke-width="3.62264" stroke-miterlimit="10"/>
<path d="M1350.35 411.244C1294.16 390.309 1225.73 398.552 1168.22 421.97C1164.27 423.571 1160.42 425.257 1156.62 426.977C1164.85 431.819 1173.16 436.711 1181.52 441.525C1189.09 444.876 1196.66 447.883 1204.38 450.457C1253.7 435.829 1308.31 431.551 1354.74 447.006C1365.32 443.538 1375.8 439.595 1386.18 435.157C1374.58 424.95 1362.35 415.728 1350.35 411.244Z" stroke="white" stroke-width="3.62264" stroke-miterlimit="10"/>
<path d="M1204.38 450.465C1207.17 451.397 1209.95 452.295 1212.8 453.113C1261.54 467.157 1309.11 461.962 1354.74 447.013C1308.31 431.559 1253.7 435.836 1204.38 450.465Z" stroke="white" stroke-width="3.62264" stroke-miterlimit="10"/>
<path d="M1725.06 233.574L1682.1 260.197L1641.69 285.199L1602.64 309.401L1563.72 333.514L1563.02 333.956L1532.74 352.715L1505.79 369.416L1495.73 375.65C1490.4 378.952 1485.03 382.25 1479.62 385.541C1471.55 390.445 1463.39 395.319 1455.11 400.094C1447.53 404.476 1439.85 408.753 1432.1 412.925C1424.27 417.118 1416.36 421.175 1408.38 425.031C1401.04 428.576 1393.64 431.973 1386.18 435.14C1375.81 439.541 1365.32 443.522 1354.74 446.989C1309.1 461.939 1261.54 467.132 1212.8 453.089C1209.97 452.276 1207.17 451.372 1204.37 450.441C1196.66 447.866 1189.05 444.864 1181.52 441.508C1213.22 459.755 1245.78 476.807 1278.66 485.21C1301.09 490.862 1322.7 493.159 1342.39 489.75C1408.35 478.344 1471.11 468.625 1533.3 443.44C1541.81 439.999 1550.13 436.199 1558.3 432.246C1654.04 386.289 1738.62 310.085 1834.63 267.957C1866.5 253.977 1897.46 237.163 1928.1 219.065C2000.5 176.153 2073.33 125.536 2153.97 107.776C2172.99 103.534 2192.39 101.239 2211.87 100.929C2260.11 100.224 2308.74 111.951 2357.17 124.89C2375.76 113.59 2394.65 102.984 2413.85 93.0698C2393.98 90.0015 2374.3 85.8527 2354.9 80.6423C2302.42 66.9428 2249.55 48.2311 2196.49 40.3501C2183.04 38.2959 2169.46 37.0715 2155.85 36.684C2126.54 35.9581 2098.06 39.7954 2070.37 46.87C2015.35 60.914 1963.29 87.8179 1912.91 117.619C1896.89 127.095 1881.03 136.853 1865.32 146.6L1824.53 171.867L1771.84 204.518L1725.06 233.574Z" stroke="white" stroke-width="3.62264" stroke-miterlimit="10"/>
<path d="M-358.448 364.525C-342.212 370.286 -326.185 376.077 -310.527 381.448C-224.701 410.929 -141.254 418.863 -55.8534 436.575C-22.4675 443.494 11.2627 463.281 43.9582 486.461C58.1041 483.157 72.344 480.076 86.6605 477.344C58.9695 450.928 28.2029 419.306 -3.66798 394.166C-30.8275 372.743 -58.8131 356.042 -86.4651 351.395C-158.109 339.371 -227.896 336.147 -298.776 317.436C-312.703 313.763 -326.664 309.543 -340.693 304.482C-343.96 303.303 -347.252 302.095 -350.568 300.859C-363.537 296.031 -376.787 290.849 -390.158 285.623C-401.954 281.013 -413.868 276.384 -425.829 271.921C-445.465 264.605 -465.18 257.791 -484.664 252.4L-473.446 330.475C-435.308 337.763 -396.148 351.052 -358.448 364.525Z" stroke="white" stroke-width="3.62264" stroke-miterlimit="10"/>
<path d="M746.763 452.928C828.27 436.832 894.872 379.821 977.893 371.856C1007.02 369.056 1035.01 372.542 1061.95 380.44C1078.64 385.337 1095.88 393.208 1113.54 402.553C1105.24 397.011 1096.98 391.34 1088.74 385.623C1079.83 379.449 1070.94 373.272 1062.03 367.169C1050.64 359.396 1039.22 351.838 1027.71 344.81C990.621 322.156 952.583 305.031 911.262 304.295C831.051 302.867 768.137 360.173 693.213 380.698C687.994 382.132 682.723 383.389 677.377 384.429C661.751 387.473 646.445 388.988 631.53 390.14C577.405 394.47 528.439 394.551 488.234 447.288C487.578 448.145 486.924 448.949 486.272 449.832C478.496 460.447 471.916 472.064 465.8 484.071C462.398 490.698 459.143 497.489 455.911 504.25C470.709 507.885 485.456 511.598 500.128 515.286C514.539 518.916 529.06 522.541 543.694 526.162C547.229 521.874 550.864 517.669 554.7 513.636C611.342 454.075 676.533 466.763 746.763 452.928Z" stroke="white" stroke-width="3.62264" stroke-miterlimit="10"/>
<path d="M-329.123 442.498C-312.646 447.786 -296.353 453.206 -280.365 458.407C-206.391 482.584 -134.164 496.567 -61.2746 513.253C-49.3981 510.231 -37.5922 507.149 -25.9659 504.111C-2.9376 498.075 20.3819 491.971 43.9549 486.462C11.2594 463.282 -22.4707 443.495 -55.8566 436.576C-141.257 418.864 -224.704 410.93 -310.53 381.449C-326.188 376.078 -342.224 370.288 -358.452 364.526C-396.151 351.053 -435.311 337.764 -473.45 330.476L-461.914 410.759C-417.859 415.558 -372.415 428.479 -329.123 442.498Z" stroke="white" stroke-width="3.62264" stroke-miterlimit="10"/>
<path d="M2211.87 100.954C2192.39 101.264 2172.99 103.558 2153.97 107.8C2073.32 125.526 2000.5 176.178 1928.1 219.089C1897.49 237.185 1866.5 254.002 1834.63 267.982C1738.62 310.11 1654.04 386.314 1558.3 432.271C1550.13 436.224 1541.81 440.024 1533.3 443.465C1471.11 468.641 1408.35 478.369 1342.39 489.775C1322.7 493.184 1301.09 490.886 1278.66 485.235C1245.77 476.806 1213.22 459.771 1181.52 441.533C1173.16 436.719 1164.85 431.827 1156.62 426.985C1143.86 419.497 1131.27 412.142 1118.89 405.423C1117.1 404.452 1115.32 403.495 1113.54 402.553C1095.87 393.208 1078.64 385.337 1061.94 380.44C1035 372.542 1007.02 369.039 977.887 371.856C894.866 379.821 828.264 436.832 746.756 452.928C676.526 466.763 611.335 454.075 554.699 513.67C550.857 517.73 547.227 521.909 543.692 526.196C581.801 535.558 620.396 544.482 658.318 551.127C660.424 551.499 662.521 551.803 664.657 552.128C713.372 530.352 763.946 531.855 816.185 521.42C897.118 505.205 964.224 457.119 1044.56 439.411C1072.01 433.362 1098.55 430.778 1124.7 432.097C1184.36 435.188 1268.23 500.528 1344.55 517.352C1367.58 522.426 1389.11 523.49 1407.34 518.283C1471.33 500.004 1530.76 510.732 1595.35 496.312C1604 494.33 1612.52 491.843 1620.88 488.865C1718.83 454.56 1795.39 359.69 1895.76 332.396C1928.74 323.422 1960.16 308.806 1990.85 291.549C2062.61 250.993 2132.42 195.625 2210.98 174.42C2229.56 169.35 2248.63 166.26 2267.86 165.204C2277.42 164.708 2287 164.664 2296.61 165.037C2316.4 150.817 2336.58 137.453 2357.15 124.944C2308.74 111.976 2260.11 100.249 2211.87 100.954Z" stroke="white" stroke-width="3.62264" stroke-miterlimit="10"/>
<path d="M2211 174.392C2132.45 195.596 2062.64 250.955 1990.88 291.52C1960.19 308.803 1928.77 323.419 1895.79 332.367C1795.39 359.666 1718.82 454.536 1620.9 488.836C1612.55 491.815 1604.03 494.301 1595.38 496.283C1530.76 510.707 1471.34 499.979 1407.37 518.254C1389.14 523.504 1367.61 522.397 1344.58 517.323C1268.25 500.499 1184.39 435.159 1124.73 432.068C1098.57 430.714 1072 433.34 1044.59 439.382C964.247 457.064 897.145 505.176 816.212 521.391C763.973 531.826 713.399 530.323 664.684 552.099C718.316 560.414 771.831 555.224 823.656 550.163C881.577 544.472 940.861 538.717 999.883 552.511C1036.39 537.33 1072.57 520.757 1111.23 506.942C1136.93 497.751 1161.82 489.466 1187.46 483.712C1237.98 472.42 1326.39 529.995 1400.96 547.395C1454.3 527.2 1514.79 524.682 1571.79 540.476C1599.14 544.886 1627.19 550.712 1657.44 549.119C1666.2 548.6 1674.91 547.349 1683.46 545.382C1783.79 522.995 1852.1 409.044 1956.96 396.723C1991.03 392.704 2022.89 380.33 2053.66 363.87C2091.73 343.422 2128.57 316.697 2166.3 292.491C2175.18 283.06 2183.87 273.56 2192.44 264.182C2224.31 229.322 2257.27 193.28 2295.96 165.429L2296.68 164.914C2287.07 164.541 2277.49 164.55 2267.93 165.08C2248.68 166.164 2229.6 169.286 2211 174.392V174.392Z" stroke="white" stroke-width="3.62264" stroke-miterlimit="10"/>
<path d="M2053.67 363.946C2022.91 380.406 1991.05 392.789 1956.98 396.798C1852.12 409.119 1783.78 523.074 1683.48 545.458C1674.92 547.425 1666.22 548.675 1657.46 549.195C1627.21 550.788 1599.16 544.962 1571.81 540.552C1588.74 545.234 1605.19 551.492 1620.93 559.241C1639.56 568.429 1657.5 579.672 1674.92 591.341C1689.14 596.312 1703.91 600.329 1719.5 602.044C1728.33 602.977 1737.23 602.991 1746.06 602.086C1848.72 591.721 1908.84 458.427 2018.16 461.267C2027.46 461.498 2036.78 460.969 2046 459.687C2056.04 403.357 2093.46 362.807 2125.25 333.668C2139.53 320.576 2153.15 306.675 2166.36 292.631C2128.55 316.778 2091.71 343.503 2053.67 363.946Z" stroke="white" stroke-width="3.62264" stroke-miterlimit="10"/>
<path d="M1187.41 483.762C1161.76 489.499 1136.87 497.785 1111.17 506.993C1072.52 520.807 1036.33 537.381 999.824 552.561C1028.71 559.246 1056.27 570.613 1081.4 586.204C1091.5 592.452 1101.53 599.561 1111.3 606.55C1133.21 596.746 1155.21 586.053 1177.8 574.554C1201.84 562.33 1225.31 548.997 1250.14 535.44C1279.02 519.68 1330.16 536.895 1383.12 554.981C1388.94 552.262 1394.87 549.756 1400.9 547.463C1326.33 530.045 1237.92 472.471 1187.41 483.762Z" stroke="white" stroke-width="3.62264" stroke-miterlimit="10"/>
<path d="M1250.14 535.425C1225.31 548.981 1201.84 562.297 1177.8 574.538C1155.21 586.037 1133.2 596.732 1111.3 606.534L1114.11 608.551C1141.91 628.479 1170.66 649.095 1202.52 652.191C1212.52 653.14 1222.62 652.4 1232.38 650.005C1258.77 633.217 1285.43 612.69 1312.87 587.087C1322.07 578.531 1334.79 574.652 1349.83 573.885C1360.41 566.72 1371.54 560.394 1383.12 554.965C1330.17 536.914 1279.03 519.708 1250.14 535.425Z" stroke="white" stroke-width="3.62264" stroke-miterlimit="10"/>
<path d="M2018.09 461.206C1908.78 458.4 1848.66 591.72 1745.99 602.025C1737.16 602.93 1728.26 602.915 1719.43 601.982C1703.85 600.311 1689.07 596.216 1674.85 591.279C1682.33 596.282 1689.72 601.349 1697.03 606.377C1712.01 616.676 1727.47 627.328 1743.11 636.841C1751.23 641.813 1759.12 646.194 1766.85 650.163C1771.63 651.976 1776.52 653.534 1781.47 654.831C1885.04 681.552 1937.52 559.756 2023.79 530.367C2034.19 510.026 2041.33 488.656 2045.32 463.09C2045.5 461.898 2045.77 460.763 2045.98 459.584C2036.74 460.883 2027.41 461.426 2018.09 461.206V461.206Z" stroke="white" stroke-width="3.62264" stroke-miterlimit="10"/>
<path d="M1781.47 654.867C1776.51 653.571 1771.63 652.013 1766.84 650.199C1806.83 670.761 1841.64 678.037 1872.36 672.589C1917.47 664.529 1951.8 628.781 1976.66 598.542C1996.65 574.246 2012.22 552.954 2023.75 530.39C1937.55 559.787 1885.03 681.589 1781.47 654.867Z" stroke="white" stroke-width="3.62264" stroke-miterlimit="10"/>
<path d="M2413.85 93.1288C2394.67 103.024 2375.78 113.63 2357.18 124.949C2336.61 137.463 2316.42 150.828 2296.64 165.042L2295.91 165.558C2257.26 193.404 2224.3 229.445 2192.39 264.31C2183.82 273.68 2175.13 283.18 2166.26 292.619C2153.04 306.663 2139.42 320.565 2125.14 333.657C2093.37 362.775 2055.96 403.342 2045.89 459.675C2045.68 460.855 2045.41 461.99 2045.23 463.182C2041.24 488.748 2034.1 510.118 2023.7 530.458C2012.16 553.005 1996.59 574.298 1976.6 598.61C1951.74 628.85 1917.41 664.597 1872.3 672.657C1841.55 678.146 1806.77 670.795 1766.79 650.268C1759.07 646.3 1751.17 641.901 1743.05 636.947C1727.45 627.428 1711.95 616.781 1696.97 606.482C1689.66 601.455 1682.24 596.391 1674.79 591.385C1657.35 579.719 1639.43 568.473 1620.8 559.285C1605.06 551.536 1588.61 545.279 1571.68 540.596C1514.68 524.802 1454.19 527.32 1400.85 547.515C1394.82 549.796 1388.89 552.302 1383.07 555.033C1371.49 560.461 1360.35 566.788 1349.77 573.953C1348.38 574.898 1346.96 575.83 1345.59 576.807C1335.23 584.145 1324.84 592.531 1314.82 600.626C1289.01 621.487 1262.48 642.838 1232.33 650.073C1222.57 652.468 1212.47 653.207 1202.46 652.259C1170.61 649.163 1141.85 628.521 1114.06 608.619L1111.24 606.602C1101.48 599.613 1091.45 592.504 1081.34 586.256C1056.22 570.666 1028.66 559.299 999.771 552.613C940.749 538.819 881.469 544.601 823.544 550.266C771.719 555.327 718.204 560.517 664.571 552.201C662.471 551.872 660.374 551.568 658.232 551.2C620.31 544.556 581.716 535.632 543.607 526.27C528.989 522.676 514.467 519.05 500.041 515.394C485.351 511.708 470.656 507.988 455.824 504.357C430.714 498.187 405.406 492.239 380.012 486.916C358.023 482.324 335.943 478.209 313.77 474.861C276.679 469.255 239.314 465.811 201.846 465.836C188.571 465.841 175.224 466.267 161.896 467.191C154.668 467.704 147.448 468.39 140.252 469.188C122.245 471.179 104.35 474.013 86.5608 477.402C72.2443 480.134 58.0045 483.215 43.8586 486.519C20.2855 492.028 -3.04259 498.133 -26.0623 504.168C-37.5857 507.183 -49.3619 510.225 -61.278 513.218C-77.1769 517.256 -93.2107 521.217 -109.22 524.798C-146.388 533.072 -183.953 539.464 -221.768 543.95C-293.177 552.456 -366.552 554.507 -441.892 550.103L-441.388 553.608C-325.883 560.33 -214.652 551.899 -108.458 528.187C-80.4356 521.925 -52.2971 514.558 -25.0878 507.439C35.6588 491.538 98.4593 475.087 162.231 470.572C276.127 462.521 389.563 491.06 499.254 518.664C551.29 531.76 605.107 545.302 657.692 554.523C713.9 564.38 769.835 558.912 823.946 553.62C911.973 545.015 995.117 536.918 1079.57 589.107C1090.53 595.889 1101.49 603.742 1112.08 611.331C1140.26 631.538 1169.4 652.424 1202.2 655.621C1246.88 659.979 1282.57 631.12 1317.1 603.219C1327.08 595.155 1337.42 586.812 1347.69 579.531C1424.11 525.405 1530.72 518.621 1619.31 562.323C1645.69 575.334 1670.78 592.583 1695.08 609.261C1710.1 619.582 1725.64 630.301 1741.32 639.834C1792.26 670.899 1835.28 682.747 1873.02 676C1919.25 667.736 1954.16 631.431 1979.41 600.732C2017.83 553.996 2040.26 518.328 2048.79 463.609C2057.64 406.538 2095.5 365.565 2127.56 336.159C2151.55 314.166 2173.66 289.986 2195.03 266.597C2228.25 230.255 2259.62 195.932 2297.98 168.321C2355.74 126.627 2418.18 91.7256 2484.04 64.3222L2483.53 60.7651C2461.25 69.9815 2439.31 80.0972 2417.7 91.1121C2416.37 91.7853 2415.14 92.5147 2413.85 93.1288Z" stroke="white" stroke-width="3.62264" stroke-miterlimit="10"/>
</svg>
